<svg width="32" height="32" viewBox="0 0 32 32" fill="none" xmlns="http://www.w3.org/2000/svg">
  <defs>
    <linearGradient id="gradient" x1="0%" y1="0%" x2="100%" y2="100%">
      <stop offset="0%" style="stop-color:#06b6d4;stop-opacity:1" />
      <stop offset="100%" style="stop-color:#8b5cf6;stop-opacity:1" />
    </linearGradient>
  </defs>
  <rect width="32" height="32" rx="8" fill="url(#gradient)"/>
  <path d="M16 8c-2.5 0-4.5 2-4.5 4.5 0 1.5 0.7 2.8 1.8 3.6L12 18.5c-0.3 0.8 0.2 1.5 1 1.5h6c0.8 0 1.3-0.7 1-1.5l-1.3-2.4c1.1-0.8 1.8-2.1 1.8-3.6C20.5 10 18.5 8 16 8z" fill="white"/>
  <circle cx="16" cy="12.5" r="1.5" fill="url(#gradient)"/>
  <rect x="14" y="21" width="4" height="2" rx="1" fill="white"/>
</svg>